<svg width="313" height="214" viewBox="0 0 313 214" fill="none" xmlns="http://www.w3.org/2000/svg">
<mask id="path-1-outside-1_58_235" maskUnits="userSpaceOnUse" x="-3" y="49" width="318" height="83" fill="black">
<rect fill="white" x="-3" y="49" width="318" height="83"/>
<path d="M69.5925 83.48H76.7125V96.84H69.5925V123H53.8325V59.16H69.5925V83.48ZM3.0325 122.28L10.9525 61.16H41.3525L47.7525 122.28H32.3925L26.2325 62.52L19.2725 122.28H3.0325ZM141.808 69.8H149.728V82.44H141.808V96.6H125.968V59.16H141.808V69.8ZM78.7681 95.64V73.24H103.408V70.36H78.7681V59.64H119.008V82.44H94.2081V85.48H120.608V95.64H78.7681ZM81.4881 112.2C81.4881 104.28 86.4481 99.32 96.6881 99.24C107.248 99.08 117.808 99.08 128.288 99.24C138.528 99.24 143.488 104.2 143.488 112.2C143.488 119.8 138.048 125 128.448 125.24C117.808 125.48 107.168 125.48 96.6081 125.24C87.0081 125 81.4881 119.8 81.4881 112.2ZM97.0881 116.44L126.928 110.44V107.72L97.0881 113.72V116.44ZM169.219 93.32V81.72H236.419V93.32H169.219ZM170.419 111C170.419 102.76 175.619 97.08 185.619 97C197.059 96.84 208.419 96.84 219.859 97C229.859 97 235.059 102.68 235.059 111C235.059 113.32 234.499 115.56 233.459 117.72C231.139 122.12 226.419 124.92 220.019 125.16C208.499 125.4 196.979 125.4 185.539 125.16C182.339 125.08 179.539 124.36 177.139 122.92C172.659 120.28 170.419 115.88 170.419 111ZM171.859 71.16V59.32H233.219V78.6H217.459V71.16H171.859ZM187.219 115.08L218.099 109.08V106.36L187.219 112.36V115.08ZM256.893 116.68H306.573V125.72H244.493V115.96L299.853 110.52H244.493V101.64H252.733V98.92H241.453V91.32H308.653V98.92H297.373V101.64H306.013V111.8L256.893 116.68ZM244.893 68.44V60.12H267.133V55.8H282.893V60.12H305.133V68.44H244.893ZM246.173 79.8C246.173 73.08 250.253 70.36 260.493 70.36H289.453C299.693 70.36 303.773 73.08 303.773 79.8C303.773 86.52 299.693 89.24 289.453 89.24H260.493C250.253 89.24 246.173 86.52 246.173 79.8ZM260.093 83.96L289.933 78.04V75L260.093 80.92V83.96ZM268.813 101.64H281.293V98.92H268.813V101.64Z"/>
</mask>
<path d="M69.5925 83.48H76.7125V96.84H69.5925V123H53.8325V59.16H69.5925V83.48ZM3.0325 122.28L10.9525 61.16H41.3525L47.7525 122.28H32.3925L26.2325 62.52L19.2725 122.28H3.0325ZM141.808 69.8H149.728V82.44H141.808V96.6H125.968V59.16H141.808V69.8ZM78.7681 95.64V73.24H103.408V70.36H78.7681V59.64H119.008V82.44H94.2081V85.48H120.608V95.64H78.7681ZM81.4881 112.2C81.4881 104.28 86.4481 99.32 96.6881 99.24C107.248 99.08 117.808 99.08 128.288 99.24C138.528 99.24 143.488 104.2 143.488 112.2C143.488 119.8 138.048 125 128.448 125.24C117.808 125.48 107.168 125.48 96.6081 125.24C87.0081 125 81.4881 119.8 81.4881 112.2ZM97.0881 116.44L126.928 110.44V107.72L97.0881 113.72V116.44ZM169.219 93.32V81.72H236.419V93.32H169.219ZM170.419 111C170.419 102.76 175.619 97.08 185.619 97C197.059 96.84 208.419 96.84 219.859 97C229.859 97 235.059 102.68 235.059 111C235.059 113.32 234.499 115.56 233.459 117.72C231.139 122.12 226.419 124.92 220.019 125.16C208.499 125.4 196.979 125.4 185.539 125.16C182.339 125.08 179.539 124.36 177.139 122.92C172.659 120.28 170.419 115.88 170.419 111ZM171.859 71.16V59.32H233.219V78.6H217.459V71.16H171.859ZM187.219 115.08L218.099 109.08V106.36L187.219 112.36V115.08ZM256.893 116.68H306.573V125.72H244.493V115.96L299.853 110.52H244.493V101.64H252.733V98.92H241.453V91.32H308.653V98.92H297.373V101.64H306.013V111.8L256.893 116.68ZM244.893 68.44V60.12H267.133V55.8H282.893V60.12H305.133V68.44H244.893ZM246.173 79.8C246.173 73.08 250.253 70.36 260.493 70.36H289.453C299.693 70.36 303.773 73.08 303.773 79.8C303.773 86.52 299.693 89.24 289.453 89.24H260.493C250.253 89.24 246.173 86.52 246.173 79.8ZM260.093 83.96L289.933 78.04V75L260.093 80.92V83.96ZM268.813 101.64H281.293V98.92H268.813V101.64Z" fill="url(#paint0_linear_58_235)"/>
<path d="M69.5925 83.48H63.5925C63.5925 86.7937 66.2788 89.48 69.5925 89.48V83.48ZM76.7125 83.48H82.7125C82.7125 80.1663 80.0262 77.48 76.7125 77.48V83.48ZM76.7125 96.84V102.84C80.0262 102.84 82.7125 100.154 82.7125 96.84H76.7125ZM69.5925 96.84V90.84C66.2788 90.84 63.5925 93.5263 63.5925 96.84H69.5925ZM69.5925 123V129C72.9062 129 75.5925 126.314 75.5925 123H69.5925ZM53.8325 123H47.8325C47.8325 126.314 50.5188 129 53.8325 129V123ZM53.8325 59.16V53.16C50.5188 53.16 47.8325 55.8463 47.8325 59.16H53.8325ZM69.5925 59.16H75.5925C75.5925 55.8463 72.9062 53.16 69.5925 53.16V59.16ZM3.0325 122.28L-2.91775 121.509C-3.13952 123.22 -2.61366 124.944 -1.47451 126.241C-0.335352 127.537 1.3068 128.28 3.0325 128.28V122.28ZM10.9525 61.16V55.16C7.93686 55.16 5.38978 57.3983 5.00225 60.389L10.9525 61.16ZM41.3525 61.16L47.3199 60.5351C47 57.48 44.4243 55.16 41.3525 55.16V61.16ZM47.7525 122.28V128.28C49.4526 128.28 51.0728 127.559 52.2106 126.296C53.3484 125.032 53.8969 123.346 53.7199 121.655L47.7525 122.28ZM32.3925 122.28L26.4241 122.895C26.7395 125.955 29.317 128.28 32.3925 128.28V122.28ZM26.2325 62.52L32.2009 61.9048C31.8871 58.8606 29.3325 56.5404 26.2722 56.5201C23.2119 56.4999 20.6268 58.7861 20.2728 61.8259L26.2325 62.52ZM19.2725 122.28V128.28C22.3177 128.28 24.8799 125.999 25.2322 122.974L19.2725 122.28ZM69.5925 89.48H76.7125V77.48H69.5925V89.48ZM70.7125 83.48V96.84H82.7125V83.48H70.7125ZM76.7125 90.84H69.5925V102.84H76.7125V90.84ZM63.5925 96.84V123H75.5925V96.84H63.5925ZM69.5925 117H53.8325V129H69.5925V117ZM59.8325 123V59.16H47.8325V123H59.8325ZM53.8325 65.16H69.5925V53.16H53.8325V65.16ZM63.5925 59.16V83.48H75.5925V59.16H63.5925ZM8.98275 123.051L16.9028 61.931L5.00225 60.389L-2.91775 121.509L8.98275 123.051ZM10.9525 67.16H41.3525V55.16H10.9525V67.16ZM35.3851 61.7849L41.7851 122.905L53.7199 121.655L47.3199 60.5351L35.3851 61.7849ZM47.7525 116.28H32.3925V128.28H47.7525V116.28ZM38.3609 121.665L32.2009 61.9048L20.2641 63.1352L26.4241 122.895L38.3609 121.665ZM20.2728 61.8259L13.3128 121.586L25.2322 122.974L32.1922 63.2141L20.2728 61.8259ZM19.2725 116.28H3.0325V128.28H19.2725V116.28ZM141.808 69.8H135.808C135.808 73.1137 138.494 75.8 141.808 75.8V69.8ZM149.728 69.8H155.728C155.728 66.4863 153.042 63.8 149.728 63.8V69.8ZM149.728 82.44V88.44C153.042 88.44 155.728 85.7537 155.728 82.44H149.728ZM141.808 82.44V76.44C138.494 76.44 135.808 79.1263 135.808 82.44H141.808ZM141.808 96.6V102.6C145.122 102.6 147.808 99.9137 147.808 96.6H141.808ZM125.968 96.6H119.968C119.968 99.9137 122.654 102.6 125.968 102.6V96.6ZM125.968 59.16V53.16C122.654 53.16 119.968 55.8463 119.968 59.16H125.968ZM141.808 59.16H147.808C147.808 55.8463 145.122 53.16 141.808 53.16V59.16ZM78.7681 95.64H72.7681C72.7681 98.9537 75.4544 101.64 78.7681 101.64V95.64ZM78.7681 73.24V67.24C75.4544 67.24 72.7681 69.9263 72.7681 73.24H78.7681ZM103.408 73.24V79.24C106.722 79.24 109.408 76.5537 109.408 73.24H103.408ZM103.408 70.36H109.408C109.408 67.0463 106.722 64.36 103.408 64.36V70.36ZM78.7681 70.36H72.7681C72.7681 73.6737 75.4544 76.36 78.7681 76.36V70.36ZM78.7681 59.64V53.64C75.4544 53.64 72.7681 56.3263 72.7681 59.64H78.7681ZM119.008 59.64H125.008C125.008 56.3263 122.322 53.64 119.008 53.64V59.64ZM119.008 82.44V88.44C122.322 88.44 125.008 85.7537 125.008 82.44H119.008ZM94.2081 82.44V76.44C90.8944 76.44 88.2081 79.1263 88.2081 82.44H94.2081ZM94.2081 85.48H88.2081C88.2081 88.7937 90.8944 91.48 94.2081 91.48V85.48ZM120.608 85.48H126.608C126.608 82.1663 123.922 79.48 120.608 79.48V85.48ZM120.608 95.64V101.64C123.922 101.64 126.608 98.9537 126.608 95.64H120.608ZM96.6881 99.24L96.735 105.24C96.7497 105.24 96.7644 105.24 96.779 105.239L96.6881 99.24ZM128.288 99.24L128.197 105.239C128.227 105.24 128.258 105.24 128.288 105.24V99.24ZM128.448 125.24L128.583 131.238C128.588 131.238 128.593 131.238 128.598 131.238L128.448 125.24ZM96.6081 125.24L96.4582 131.238L96.4718 131.238L96.6081 125.24ZM97.0881 116.44H91.0881C91.0881 118.239 91.895 119.942 93.2866 121.082C94.6781 122.222 96.5075 122.677 98.2709 122.322L97.0881 116.44ZM126.928 110.44L128.111 116.322C130.913 115.759 132.928 113.298 132.928 110.44H126.928ZM126.928 107.72H132.928C132.928 105.921 132.121 104.218 130.73 103.078C129.338 101.938 127.509 101.483 125.745 101.838L126.928 107.72ZM97.0881 113.72L95.9054 107.838C93.1037 108.401 91.0881 110.862 91.0881 113.72H97.0881ZM141.808 75.8H149.728V63.8H141.808V75.8ZM143.728 69.8V82.44H155.728V69.8H143.728ZM149.728 76.44H141.808V88.44H149.728V76.44ZM135.808 82.44V96.6H147.808V82.44H135.808ZM141.808 90.6H125.968V102.6H141.808V90.6ZM131.968 96.6V59.16H119.968V96.6H131.968ZM125.968 65.16H141.808V53.16H125.968V65.16ZM135.808 59.16V69.8H147.808V59.16H135.808ZM84.7681 95.64V73.24H72.7681V95.64H84.7681ZM78.7681 79.24H103.408V67.24H78.7681V79.24ZM109.408 73.24V70.36H97.4081V73.24H109.408ZM103.408 64.36H78.7681V76.36H103.408V64.36ZM84.7681 70.36V59.64H72.7681V70.36H84.7681ZM78.7681 65.64H119.008V53.64H78.7681V65.64ZM113.008 59.64V82.44H125.008V59.64H113.008ZM119.008 76.44H94.2081V88.44H119.008V76.44ZM88.2081 82.44V85.48H100.208V82.44H88.2081ZM94.2081 91.48H120.608V79.48H94.2081V91.48ZM114.608 85.48V95.64H126.608V85.48H114.608ZM120.608 89.64H78.7681V101.64H120.608V89.64ZM87.4881 112.2C87.4881 109.536 88.2776 108.115 89.2343 107.264C90.3044 106.313 92.4941 105.273 96.735 105.24L96.6413 93.2402C90.6422 93.287 85.2318 94.7668 81.2619 98.2955C77.1786 101.925 75.4881 106.944 75.4881 112.2H87.4881ZM96.779 105.239C107.279 105.08 117.778 105.08 128.197 105.239L128.38 93.2407C117.838 93.0798 107.218 93.0798 96.5972 93.2407L96.779 105.239ZM128.288 105.24C132.522 105.24 134.689 106.269 135.742 107.204C136.686 108.044 137.488 109.475 137.488 112.2H149.488C149.488 106.925 147.81 101.876 143.714 98.2355C139.727 94.6911 134.294 93.24 128.288 93.24V105.24ZM137.488 112.2C137.488 114.48 136.723 115.979 135.578 116.999C134.346 118.096 132.085 119.147 128.298 119.242L128.598 131.238C134.412 131.093 139.67 129.424 143.559 125.961C147.533 122.421 149.488 117.52 149.488 112.2H137.488ZM128.313 119.242C117.763 119.479 107.213 119.479 96.7445 119.242L96.4718 131.238C107.123 131.481 117.854 131.48 128.583 131.238L128.313 119.242ZM96.7581 119.242C92.9705 119.147 90.6785 118.095 89.4213 116.984C88.2537 115.952 87.4881 114.452 87.4881 112.2H75.4881C75.4881 117.548 77.4825 122.448 81.4749 125.976C85.3778 129.425 90.6457 131.093 96.4582 131.238L96.7581 119.242ZM98.2709 122.322L128.111 116.322L125.745 104.558L95.9054 110.558L98.2709 122.322ZM132.928 110.44V107.72H120.928V110.44H132.928ZM125.745 101.838L95.9054 107.838L98.2709 119.602L128.111 113.602L125.745 101.838ZM91.0881 113.72V116.44H103.088V113.72H91.0881ZM169.219 93.32H163.219C163.219 96.6337 165.905 99.32 169.219 99.32V93.32ZM169.219 81.72V75.72C165.905 75.72 163.219 78.4063 163.219 81.72H169.219ZM236.419 81.72H242.419C242.419 78.4063 239.732 75.72 236.419 75.72V81.72ZM236.419 93.32V99.32C239.732 99.32 242.419 96.6337 242.419 93.32H236.419ZM185.619 97L185.667 103C185.679 103 185.691 103 185.703 102.999L185.619 97ZM219.859 97L219.775 102.999C219.803 103 219.831 103 219.859 103V97ZM233.459 117.72L238.766 120.518C238.8 120.454 238.833 120.389 238.865 120.323L233.459 117.72ZM220.019 125.16L220.144 131.159C220.177 131.158 220.21 131.157 220.244 131.156L220.019 125.16ZM185.539 125.16L185.389 131.158C185.397 131.158 185.405 131.159 185.413 131.159L185.539 125.16ZM177.139 122.92L180.226 117.775C180.212 117.767 180.199 117.759 180.185 117.751L177.139 122.92ZM171.859 71.16H165.859C165.859 74.4737 168.545 77.16 171.859 77.16V71.16ZM171.859 59.32V53.32C168.545 53.32 165.859 56.0063 165.859 59.32H171.859ZM233.219 59.32H239.219C239.219 56.0063 236.532 53.32 233.219 53.32V59.32ZM233.219 78.6V84.6C236.532 84.6 239.219 81.9137 239.219 78.6H233.219ZM217.459 78.6H211.459C211.459 81.9137 214.145 84.6 217.459 84.6V78.6ZM217.459 71.16H223.459C223.459 67.8463 220.772 65.16 217.459 65.16V71.16ZM187.219 115.08H181.219C181.219 116.872 182.02 118.57 183.402 119.71C184.785 120.849 186.604 121.312 188.363 120.97L187.219 115.08ZM218.099 109.08L219.243 114.97C222.063 114.422 224.099 111.952 224.099 109.08H218.099ZM218.099 106.36H224.099C224.099 104.568 223.298 102.87 221.915 101.73C220.533 100.591 218.713 100.128 216.954 100.47L218.099 106.36ZM187.219 112.36L186.074 106.47C183.255 107.018 181.219 109.488 181.219 112.36H187.219ZM175.219 93.32V81.72H163.219V93.32H175.219ZM169.219 87.72H236.419V75.72H169.219V87.72ZM230.419 81.72V93.32H242.419V81.72H230.419ZM236.419 87.32H169.219V99.32H236.419V87.32ZM176.419 111C176.419 108.162 177.285 106.367 178.435 105.258C179.607 104.127 181.78 103.031 185.667 103L185.571 91.0002C179.457 91.0491 174.031 92.8327 170.103 96.6218C166.153 100.433 164.419 105.598 164.419 111H176.419ZM185.703 102.999C197.087 102.84 208.391 102.84 219.775 102.999L219.943 91.0006C208.447 90.8398 197.031 90.8398 185.535 91.0006L185.703 102.999ZM219.859 103C223.736 103 225.887 104.083 227.043 105.198C228.181 106.296 229.059 108.103 229.059 111H241.059C241.059 105.577 239.336 100.384 235.375 96.5618C231.43 92.7569 225.982 91 219.859 91V103ZM229.059 111C229.059 112.321 228.746 113.677 228.053 115.117L238.865 120.323C240.251 117.443 241.059 114.319 241.059 111H229.059ZM228.151 114.922C227.031 117.047 224.512 118.987 219.794 119.164L220.244 131.156C228.325 130.853 235.247 127.193 238.766 120.518L228.151 114.922ZM219.894 119.161C208.457 119.4 197.02 119.4 185.665 119.161L185.413 131.159C196.937 131.4 208.541 131.4 220.144 131.159L219.894 119.161ZM185.689 119.162C183.314 119.103 181.572 118.583 180.226 117.775L174.052 128.065C177.505 130.137 181.363 131.057 185.389 131.158L185.689 119.162ZM180.185 117.751C177.669 116.268 176.419 113.915 176.419 111H164.419C164.419 117.845 167.649 124.292 174.093 128.089L180.185 117.751ZM177.859 71.16V59.32H165.859V71.16H177.859ZM171.859 65.32H233.219V53.32H171.859V65.32ZM227.219 59.32V78.6H239.219V59.32H227.219ZM233.219 72.6H217.459V84.6H233.219V72.6ZM223.459 78.6V71.16H211.459V78.6H223.459ZM217.459 65.16H171.859V77.16H217.459V65.16ZM188.363 120.97L219.243 114.97L216.954 103.19L186.074 109.19L188.363 120.97ZM224.099 109.08V106.36H212.099V109.08H224.099ZM216.954 100.47L186.074 106.47L188.363 118.25L219.243 112.25L216.954 100.47ZM181.219 112.36V115.08H193.219V112.36H181.219ZM256.893 116.68L256.3 110.709C253.117 111.026 250.742 113.783 250.9 116.977C251.059 120.171 253.695 122.68 256.893 122.68V116.68ZM306.573 116.68H312.573C312.573 113.366 309.887 110.68 306.573 110.68V116.68ZM306.573 125.72V131.72C309.887 131.72 312.573 129.034 312.573 125.72H306.573ZM244.493 125.72H238.493C238.493 129.034 241.179 131.72 244.493 131.72V125.72ZM244.493 115.96L243.906 109.989C240.835 110.291 238.493 112.874 238.493 115.96H244.493ZM299.853 110.52L300.44 116.491C303.624 116.178 306.003 113.422 305.846 110.226C305.689 107.031 303.053 104.52 299.853 104.52V110.52ZM244.493 110.52H238.493C238.493 113.834 241.179 116.52 244.493 116.52V110.52ZM244.493 101.64V95.64C241.179 95.64 238.493 98.3263 238.493 101.64H244.493ZM252.733 101.64V107.64C256.047 107.64 258.733 104.954 258.733 101.64H252.733ZM252.733 98.92H258.733C258.733 95.6063 256.047 92.92 252.733 92.92V98.92ZM241.453 98.92H235.453C235.453 102.234 238.139 104.92 241.453 104.92V98.92ZM241.453 91.32V85.32C238.139 85.32 235.453 88.0063 235.453 91.32H241.453ZM308.653 91.32H314.653C314.653 88.0063 311.967 85.32 308.653 85.32V91.32ZM308.653 98.92V104.92C311.967 104.92 314.653 102.234 314.653 98.92H308.653ZM297.373 98.92V92.92C294.059 92.92 291.373 95.6063 291.373 98.92H297.373ZM297.373 101.64H291.373C291.373 104.954 294.059 107.64 297.373 107.64V101.64ZM306.013 101.64H312.013C312.013 98.3263 309.327 95.64 306.013 95.64V101.64ZM306.013 111.8L306.606 117.771C309.675 117.466 312.013 114.884 312.013 111.8H306.013ZM244.893 68.44H238.893C238.893 71.7537 241.579 74.44 244.893 74.44V68.44ZM244.893 60.12V54.12C241.579 54.12 238.893 56.8063 238.893 60.12H244.893ZM267.133 60.12V66.12C270.447 66.12 273.133 63.4337 273.133 60.12H267.133ZM267.133 55.8V49.8C263.819 49.8 261.133 52.4863 261.133 55.8H267.133ZM282.893 55.8H288.893C288.893 52.4863 286.207 49.8 282.893 49.8V55.8ZM282.893 60.12H276.893C276.893 63.4337 279.579 66.12 282.893 66.12V60.12ZM305.133 60.12H311.133C311.133 56.8063 308.447 54.12 305.133 54.12V60.12ZM305.133 68.44V74.44C308.447 74.44 311.133 71.7537 311.133 68.44H305.133ZM260.093 83.96H254.093C254.093 85.7559 254.898 87.4574 256.286 88.5971C257.674 89.7368 259.499 90.1948 261.261 89.8453L260.093 83.96ZM289.933 78.04L291.101 83.9253C293.91 83.368 295.933 80.9036 295.933 78.04H289.933ZM289.933 75H295.933C295.933 73.2041 295.129 71.5026 293.741 70.3629C292.353 69.2232 290.527 68.7652 288.766 69.1147L289.933 75ZM260.093 80.92L258.926 75.0347C256.117 75.5919 254.093 78.0564 254.093 80.92H260.093ZM268.813 101.64H262.813C262.813 104.954 265.499 107.64 268.813 107.64V101.64ZM281.293 101.64V107.64C284.607 107.64 287.293 104.954 287.293 101.64H281.293ZM281.293 98.92H287.293C287.293 95.6063 284.607 92.92 281.293 92.92V98.92ZM268.813 98.92V92.92C265.499 92.92 262.813 95.6063 262.813 98.92H268.813ZM256.893 122.68H306.573V110.68H256.893V122.68ZM300.573 116.68V125.72H312.573V116.68H300.573ZM306.573 119.72H244.493V131.72H306.573V119.72ZM250.493 125.72V115.96H238.493V125.72H250.493ZM245.08 121.931L300.44 116.491L299.266 104.549L243.906 109.989L245.08 121.931ZM299.853 104.52H244.493V116.52H299.853V104.52ZM250.493 110.52V101.64H238.493V110.52H250.493ZM244.493 107.64H252.733V95.64H244.493V107.64ZM258.733 101.64V98.92H246.733V101.64H258.733ZM252.733 92.92H241.453V104.92H252.733V92.92ZM247.453 98.92V91.32H235.453V98.92H247.453ZM241.453 97.32H308.653V85.32H241.453V97.32ZM302.653 91.32V98.92H314.653V91.32H302.653ZM308.653 92.92H297.373V104.92H308.653V92.92ZM291.373 98.92V101.64H303.373V98.92H291.373ZM297.373 107.64H306.013V95.64H297.373V107.64ZM300.013 101.64V111.8H312.013V101.64H300.013ZM305.42 105.829L256.3 110.709L257.486 122.651L306.606 117.771L305.42 105.829ZM250.893 68.44V60.12H238.893V68.44H250.893ZM244.893 66.12H267.133V54.12H244.893V66.12ZM273.133 60.12V55.8H261.133V60.12H273.133ZM267.133 61.8H282.893V49.8H267.133V61.8ZM276.893 55.8V60.12H288.893V55.8H276.893ZM282.893 66.12H305.133V54.12H282.893V66.12ZM299.133 60.12V68.44H311.133V60.12H299.133ZM305.133 62.44H244.893V74.44H305.133V62.44ZM252.173 79.8C252.173 78.701 252.343 78.1708 252.438 77.9617C252.499 77.8258 252.565 77.7217 252.801 77.5657C253.554 77.0681 255.61 76.36 260.493 76.36V64.36C255.136 64.36 250.032 65.0118 246.185 67.5543C241.716 70.5075 240.173 75.09 240.173 79.8H252.173ZM260.493 76.36H289.453V64.36H260.493V76.36ZM289.453 76.36C294.336 76.36 296.392 77.0681 297.145 77.5657C297.381 77.7217 297.447 77.8258 297.508 77.9617C297.603 78.1708 297.773 78.701 297.773 79.8H309.773C309.773 75.09 308.23 70.5075 303.761 67.5543C299.914 65.0118 294.81 64.36 289.453 64.36V76.36ZM297.773 79.8C297.773 80.899 297.603 81.4292 297.508 81.6383C297.447 81.7742 297.381 81.8783 297.145 82.0343C296.392 82.5318 294.336 83.24 289.453 83.24V95.24C294.81 95.24 299.914 94.5881 303.761 92.0457C308.23 89.0925 309.773 84.51 309.773 79.8H297.773ZM289.453 83.24H260.493V95.24H289.453V83.24ZM260.493 83.24C255.61 83.24 253.554 82.5318 252.801 82.0343C252.565 81.8783 252.499 81.7742 252.438 81.6383C252.343 81.4292 252.173 80.899 252.173 79.8H240.173C240.173 84.51 241.716 89.0925 246.185 92.0457C250.032 94.5881 255.136 95.24 260.493 95.24V83.24ZM261.261 89.8453L291.101 83.9253L288.766 72.1547L258.926 78.0747L261.261 89.8453ZM295.933 78.04V75H283.933V78.04H295.933ZM288.766 69.1147L258.926 75.0347L261.261 86.8053L291.101 80.8853L288.766 69.1147ZM254.093 80.92V83.96H266.093V80.92H254.093ZM268.813 107.64H281.293V95.64H268.813V107.64ZM287.293 101.64V98.92H275.293V101.64H287.293ZM281.293 92.92H268.813V104.92H281.293V92.92ZM262.813 98.92V101.64H274.813V98.92H262.813Z" fill="url(#paint1_linear_58_235)" mask="url(#path-1-outside-1_58_235)"/>
<mask id="path-3-outside-2_58_235" maskUnits="userSpaceOnUse" x="45" y="139" width="223" height="57" fill="black">
<rect fill="white" x="45" y="139" width="223" height="57"/>
<path d="M51.233 146.14H102.233V148.84H85.733V189.4H67.733V148.84H51.233V146.14ZM107.477 146.14H149.477V148.84H125.537V166.42H148.277V169.12H125.477V186.7H150.077V189.4H107.477V146.14ZM188.707 181.36C188.707 177.28 185.887 175.24 174.847 171.7C161.527 167.38 156.847 163.78 156.847 157.36C156.847 148.96 163.867 145.54 180.967 145.54C198.007 145.54 204.547 149.02 204.547 158.32H186.547C186.547 150.88 184.927 148.24 180.427 148.24C176.707 148.24 174.847 150.16 174.847 153.94C174.847 157.54 178.147 160 188.647 163.36C201.907 167.86 206.707 171.46 206.707 177.58C206.707 186.28 198.967 190 180.787 190C163.087 190 154.687 185.86 154.687 177.22H172.687C172.687 184.42 175.267 187.3 181.327 187.3C186.127 187.3 188.707 185.26 188.707 181.36ZM210.758 146.14H261.758V148.84H245.258V189.4H227.258V148.84H210.758V146.14Z"/>
</mask>
<path d="M51.233 146.14H102.233V148.84H85.733V189.4H67.733V148.84H51.233V146.14ZM107.477 146.14H149.477V148.84H125.537V166.42H148.277V169.12H125.477V186.7H150.077V189.4H107.477V146.14ZM188.707 181.36C188.707 177.28 185.887 175.24 174.847 171.7C161.527 167.38 156.847 163.78 156.847 157.36C156.847 148.96 163.867 145.54 180.967 145.54C198.007 145.54 204.547 149.02 204.547 158.32H186.547C186.547 150.88 184.927 148.24 180.427 148.24C176.707 148.24 174.847 150.16 174.847 153.94C174.847 157.54 178.147 160 188.647 163.36C201.907 167.86 206.707 171.46 206.707 177.58C206.707 186.28 198.967 190 180.787 190C163.087 190 154.687 185.86 154.687 177.22H172.687C172.687 184.42 175.267 187.3 181.327 187.3C186.127 187.3 188.707 185.26 188.707 181.36ZM210.758 146.14H261.758V148.84H245.258V189.4H227.258V148.84H210.758V146.14Z" fill="url(#paint2_linear_58_235)"/>
<path d="M51.233 146.14V140.14C47.9193 140.14 45.233 142.826 45.233 146.14H51.233ZM102.233 146.14H108.233C108.233 142.826 105.547 140.14 102.233 140.14V146.14ZM102.233 148.84V154.84C105.547 154.84 108.233 152.154 108.233 148.84H102.233ZM85.733 148.84V142.84C82.4193 142.84 79.733 145.526 79.733 148.84H85.733ZM85.733 189.4V195.4C89.0468 195.4 91.733 192.714 91.733 189.4H85.733ZM67.733 189.4H61.733C61.733 192.714 64.4193 195.4 67.733 195.4V189.4ZM67.733 148.84H73.733C73.733 145.526 71.0468 142.84 67.733 142.84V148.84ZM51.233 148.84H45.233C45.233 152.154 47.9193 154.84 51.233 154.84V148.84ZM51.233 152.14H102.233V140.14H51.233V152.14ZM96.233 146.14V148.84H108.233V146.14H96.233ZM102.233 142.84H85.733V154.84H102.233V142.84ZM79.733 148.84V189.4H91.733V148.84H79.733ZM85.733 183.4H67.733V195.4H85.733V183.4ZM73.733 189.4V148.84H61.733V189.4H73.733ZM67.733 142.84H51.233V154.84H67.733V142.84ZM57.233 148.84V146.14H45.233V148.84H57.233ZM107.477 146.14V140.14C104.164 140.14 101.477 142.826 101.477 146.14H107.477ZM149.477 146.14H155.477C155.477 142.826 152.791 140.14 149.477 140.14V146.14ZM149.477 148.84V154.84C152.791 154.84 155.477 152.154 155.477 148.84H149.477ZM125.537 148.84V142.84C122.224 142.84 119.537 145.526 119.537 148.84H125.537ZM125.537 166.42H119.537C119.537 169.734 122.224 172.42 125.537 172.42V166.42ZM148.277 166.42H154.277C154.277 163.106 151.591 160.42 148.277 160.42V166.42ZM148.277 169.12V175.12C151.591 175.12 154.277 172.434 154.277 169.12H148.277ZM125.477 169.12V163.12C122.164 163.12 119.477 165.806 119.477 169.12H125.477ZM125.477 186.7H119.477C119.477 190.014 122.164 192.7 125.477 192.7V186.7ZM150.077 186.7H156.077C156.077 183.386 153.391 180.7 150.077 180.7V186.7ZM150.077 189.4V195.4C153.391 195.4 156.077 192.714 156.077 189.4H150.077ZM107.477 189.4H101.477C101.477 192.714 104.164 195.4 107.477 195.4V189.4ZM107.477 152.14H149.477V140.14H107.477V152.14ZM143.477 146.14V148.84H155.477V146.14H143.477ZM149.477 142.84H125.537V154.84H149.477V142.84ZM119.537 148.84V166.42H131.537V148.84H119.537ZM125.537 172.42H148.277V160.42H125.537V172.42ZM142.277 166.42V169.12H154.277V166.42H142.277ZM148.277 163.12H125.477V175.12H148.277V163.12ZM119.477 169.12V186.7H131.477V169.12H119.477ZM125.477 192.7H150.077V180.7H125.477V192.7ZM144.077 186.7V189.4H156.077V186.7H144.077ZM150.077 183.4H107.477V195.4H150.077V183.4ZM113.477 189.4V146.14H101.477V189.4H113.477ZM174.847 171.7L172.996 177.407C173.002 177.409 173.008 177.411 173.015 177.413L174.847 171.7ZM204.547 158.32V164.32C207.86 164.32 210.547 161.634 210.547 158.32H204.547ZM186.547 158.32H180.547C180.547 161.634 183.233 164.32 186.547 164.32V158.32ZM188.647 163.36L190.575 157.678C190.542 157.667 190.509 157.656 190.475 157.645L188.647 163.36ZM154.687 177.22V171.22C151.373 171.22 148.687 173.906 148.687 177.22H154.687ZM172.687 177.22H178.687C178.687 173.906 176 171.22 172.687 171.22V177.22ZM194.707 181.36C194.707 179.621 194.399 177.702 193.389 175.807C192.394 173.937 190.948 172.528 189.362 171.415C186.433 169.361 182.131 167.735 176.679 165.987L173.015 177.413C178.602 179.205 181.231 180.369 182.471 181.24C182.97 181.589 182.92 181.676 182.798 181.448C182.662 181.193 182.707 181.059 182.707 181.36H194.707ZM176.698 165.993C170.104 163.854 166.503 162.138 164.574 160.612C163.703 159.923 163.341 159.398 163.164 159.041C162.994 158.697 162.847 158.208 162.847 157.36H150.847C150.847 159.722 151.284 162.09 152.408 164.362C153.525 166.62 155.165 168.469 157.129 170.023C160.87 172.982 166.269 175.226 172.996 177.407L176.698 165.993ZM162.847 157.36C162.847 156.108 163.101 155.471 163.319 155.117C163.533 154.769 163.985 154.25 165.132 153.689C167.71 152.427 172.549 151.54 180.967 151.54V139.54C172.284 139.54 165.063 140.363 159.857 142.911C157.111 144.255 154.739 146.166 153.102 148.822C151.47 151.472 150.847 154.412 150.847 157.36H162.847ZM180.967 151.54C189.388 151.54 193.953 152.457 196.296 153.722C197.292 154.26 197.724 154.777 197.975 155.243C198.257 155.768 198.547 156.681 198.547 158.32H210.547C210.547 155.309 210.018 152.3 208.542 149.556C207.034 146.754 204.766 144.658 201.997 143.163C196.81 140.363 189.585 139.54 180.967 139.54V151.54ZM204.547 152.32H186.547V164.32H204.547V152.32ZM192.547 158.32C192.547 154.514 192.202 150.498 190.3 147.371C189.232 145.616 187.726 144.216 185.805 143.325C183.981 142.48 182.1 142.24 180.427 142.24V154.24C181.003 154.24 181.012 154.33 180.758 154.212C180.406 154.049 180.149 153.774 180.048 153.609C180.008 153.542 180.164 153.773 180.31 154.622C180.453 155.456 180.547 156.646 180.547 158.32H192.547ZM180.427 142.24C177.593 142.24 174.389 142.982 171.949 145.481C169.534 147.954 168.847 151.149 168.847 153.94H180.847C180.847 153.469 180.907 153.294 180.899 153.318C180.893 153.336 180.867 153.408 180.806 153.513C180.743 153.62 180.654 153.742 180.535 153.864C180.415 153.986 180.29 154.084 180.172 154.156C180.056 154.227 179.969 154.262 179.931 154.275C179.865 154.298 179.996 154.24 180.427 154.24V142.24ZM168.847 153.94C168.847 155.831 169.301 157.743 170.381 159.544C171.416 161.271 172.851 162.601 174.386 163.668C177.317 165.704 181.516 167.378 186.818 169.075L190.475 157.645C185.277 155.982 182.576 154.746 181.232 153.812C180.63 153.394 180.583 153.224 180.672 153.372C180.805 153.594 180.847 153.849 180.847 153.94H168.847ZM186.718 169.042C193.287 171.271 196.961 173.036 198.96 174.595C200.53 175.818 200.707 176.575 200.707 177.58H212.707C212.707 172.465 210.483 168.362 206.338 165.13C202.623 162.234 197.266 159.949 190.575 157.678L186.718 169.042ZM200.707 177.58C200.707 178.839 200.438 179.523 200.165 179.949C199.883 180.387 199.306 181.002 197.97 181.642C195.045 183.045 189.716 184 180.787 184V196C190.037 196 197.669 195.095 203.158 192.463C206.029 191.086 208.524 189.14 210.262 186.433C212.008 183.714 212.707 180.671 212.707 177.58H200.707ZM180.787 184C172.195 184 166.795 182.961 163.741 181.463C162.31 180.761 161.623 180.069 161.275 179.544C160.948 179.052 160.687 178.363 160.687 177.22H148.687C148.687 180.397 149.475 183.466 151.277 186.18C153.056 188.861 155.576 190.824 158.457 192.237C164.028 194.969 171.678 196 180.787 196V184ZM154.687 183.22H172.687V171.22H154.687V183.22ZM166.687 177.22C166.687 181.294 167.368 185.618 170.198 188.887C173.217 192.374 177.448 193.3 181.327 193.3V181.3C179.145 181.3 179.056 180.786 179.27 181.033C179.296 181.062 178.687 180.346 178.687 177.22H166.687ZM181.327 193.3C184.445 193.3 187.846 192.656 190.568 190.475C193.518 188.111 194.707 184.733 194.707 181.36H182.707C182.707 181.678 182.654 181.708 182.713 181.571C182.784 181.406 182.917 181.229 183.065 181.11C183.19 181.01 183.191 181.059 182.914 181.135C182.626 181.214 182.118 181.3 181.327 181.3V193.3ZM210.758 146.14V140.14C207.444 140.14 204.758 142.826 204.758 146.14H210.758ZM261.758 146.14H267.758C267.758 142.826 265.071 140.14 261.758 140.14V146.14ZM261.758 148.84V154.84C265.071 154.84 267.758 152.154 267.758 148.84H261.758ZM245.258 148.84V142.84C241.944 142.84 239.258 145.526 239.258 148.84H245.258ZM245.258 189.4V195.4C248.571 195.4 251.258 192.714 251.258 189.4H245.258ZM227.258 189.4H221.258C221.258 192.714 223.944 195.4 227.258 195.4V189.4ZM227.258 148.84H233.258C233.258 145.526 230.571 142.84 227.258 142.84V148.84ZM210.758 148.84H204.758C204.758 152.154 207.444 154.84 210.758 154.84V148.84ZM210.758 152.14H261.758V140.14H210.758V152.14ZM255.758 146.14V148.84H267.758V146.14H255.758ZM261.758 142.84H245.258V154.84H261.758V142.84ZM239.258 148.84V189.4H251.258V148.84H239.258ZM245.258 183.4H227.258V195.4H245.258V183.4ZM233.258 189.4V148.84H221.258V189.4H233.258ZM227.258 142.84H210.758V154.84H227.258V142.84ZM216.758 148.84V146.14H204.758V148.84H216.758Z" fill="url(#paint3_linear_58_235)" mask="url(#path-3-outside-2_58_235)"/>
<rect x="47.5" y="1.5" width="217" height="27" rx="8.5" fill="url(#paint4_linear_58_235)" stroke="url(#paint5_linear_58_235)" stroke-width="3"/>
<path d="M95.477 13.105H97.472V14.59H95.477V21.31H93.797V7.615H95.477V13.105ZM84.272 8.29H85.967V18.76L92.642 18.64V20.05L84.272 20.275V8.29ZM110.138 21.31H108.458V7.615H110.138V21.31ZM102.368 15.775C99.9234 15.775 98.1384 14.2 98.1384 11.905C98.1384 9.61 99.9234 8.02 102.368 8.02C104.828 8.02 106.598 9.61 106.598 11.905C106.598 14.2 104.828 15.775 102.368 15.775ZM102.368 14.29C103.928 14.29 104.963 13.345 104.963 11.905C104.963 10.45 103.928 9.505 102.368 9.505C100.808 9.505 99.7734 10.45 99.7734 11.905C99.7734 13.345 100.808 14.29 102.368 14.29ZM107.648 19.84L97.8384 19.915V18.37H107.648V19.84ZM126.652 13.105H128.647V14.59H126.652V21.31H124.972V7.615H126.652V13.105ZM121.327 16.495C121.972 17.26 122.902 17.905 123.667 18.31V20.17C122.767 19.69 121.642 18.94 120.982 18.325C120.292 17.71 119.647 16.945 119.347 16.255C119.077 16.945 118.252 17.965 117.592 18.55C116.917 19.195 115.897 19.9 115.012 20.305V18.43C115.897 17.935 116.617 17.35 117.082 16.81C118.237 15.61 118.492 14.68 118.492 11.56V8.185H120.187V11.56C120.187 14.62 120.412 15.43 121.327 16.495ZM140.593 7.615V11.02H142.513V12.505H140.593V15.925H138.913V7.615H140.593ZM130.918 13.765L137.818 13.645V14.995L129.253 15.22V10.795H134.773V9.295H129.253V7.915H136.453V12.145H130.918V13.765ZM135.283 16.24C138.988 16.24 140.878 17.17 140.878 18.955C140.878 20.725 138.988 21.64 135.283 21.64C131.578 21.64 129.673 20.725 129.673 18.955C129.673 17.17 131.578 16.24 135.283 16.24ZM135.283 20.215C137.878 20.215 139.153 19.795 139.153 18.955C139.153 18.1 137.893 17.665 135.283 17.665C132.673 17.665 131.398 18.1 131.398 18.955C131.398 19.795 132.673 20.215 135.283 20.215ZM158.082 12.505H156.447V9.37H147.147V7.9H158.127L158.082 12.505ZM159.327 14.815H146.247V13.36H159.327V14.815ZM152.787 21.625C149.052 21.625 147.042 20.665 147.042 18.865C147.042 17.065 149.052 16.12 152.787 16.12C156.522 16.12 158.532 17.065 158.532 18.865C158.532 20.665 156.522 21.625 152.787 21.625ZM152.787 20.245C155.412 20.245 156.837 19.78 156.837 18.865C156.837 17.95 155.412 17.485 152.787 17.485C150.162 17.485 148.737 17.95 148.737 18.865C148.737 19.78 150.162 20.245 152.787 20.245ZM167.613 8.2H172.623V9.43H160.833V8.2H165.843V7.195H167.613V8.2ZM161.763 11.74C161.763 10.48 163.098 9.985 166.728 9.985C170.343 9.985 171.693 10.48 171.693 11.74C171.693 12.985 170.343 13.495 166.728 13.495C163.098 13.495 161.763 12.985 161.763 11.74ZM169.998 11.74C169.998 11.305 169.098 11.125 166.728 11.125C164.343 11.125 163.443 11.305 163.443 11.74C163.443 12.16 164.343 12.34 166.728 12.34C169.098 12.34 169.998 12.16 169.998 11.74ZM173.268 14.17V15.385H170.178V16.36H171.978V19.57H163.128V20.395H172.188V21.655H161.448V18.4H170.298V17.59H161.448V16.36H163.278V15.385H160.188V14.17H173.268ZM164.943 16.36H168.513V15.385H164.943V16.36ZM183.962 14.71C180.332 14.71 178.112 13.375 178.112 11.215C178.112 9.025 180.332 7.675 183.962 7.675C187.592 7.675 189.812 9.025 189.812 11.215C189.812 13.375 187.592 14.71 183.962 14.71ZM183.962 9.145C181.382 9.145 179.837 9.925 179.837 11.2C179.837 12.505 181.382 13.285 183.962 13.285C186.542 13.285 188.087 12.505 188.087 11.2C188.087 9.925 186.542 9.145 183.962 9.145ZM177.422 15.925H190.502V17.41H187.607V21.37H185.927V17.41H181.997V21.37H180.317V17.41H177.422V15.925ZM196.628 8.74H199.973V10.135H191.513V8.74H194.918V7.285H196.628V8.74ZM203.678 16.36H202.043V14.635H200.063V13.225H202.043V11.695H200.063V10.27H202.043V7.615H203.678V16.36ZM199.478 13.51C199.478 15.07 198.113 16.15 195.773 16.15C193.433 16.15 192.068 15.07 192.068 13.51C192.068 11.935 193.463 10.84 195.773 10.84C198.083 10.84 199.478 11.935 199.478 13.51ZM193.673 13.51C193.673 14.29 194.378 14.86 195.773 14.86C197.168 14.86 197.873 14.29 197.873 13.51C197.873 12.715 197.138 12.145 195.773 12.145C194.408 12.145 193.673 12.715 193.673 13.51ZM198.398 16.69C202.073 16.69 203.948 17.53 203.948 19.18C203.948 20.815 202.073 21.64 198.398 21.64C194.708 21.64 192.833 20.815 192.833 19.18C192.833 17.53 194.708 16.69 198.398 16.69ZM198.398 20.26C200.978 20.26 202.223 19.915 202.223 19.18C202.223 18.43 200.978 18.07 198.398 18.07C195.803 18.07 194.573 18.43 194.573 19.18C194.573 19.915 195.818 20.26 198.398 20.26ZM211.845 13.66C208.38 13.66 206.115 12.685 206.115 10.705C206.115 8.725 208.38 7.705 211.845 7.705C215.31 7.705 217.575 8.725 217.575 10.705C217.575 12.685 215.31 13.66 211.845 13.66ZM211.845 12.265C214.29 12.265 215.85 11.74 215.85 10.705C215.85 9.655 214.29 9.145 211.845 9.145C209.415 9.145 207.84 9.655 207.84 10.705C207.84 11.74 209.415 12.265 211.845 12.265ZM218.385 16.225H205.305V14.74H218.385V16.225ZM217.665 21.28H206.34V17.08H208.065V19.81H217.665V21.28ZM223.656 17.035H222.111V15.955C222.111 14.68 222.441 13.99 223.671 13.33C224.706 12.79 225.216 12.385 225.216 11.47C225.216 10.66 224.481 9.955 223.266 9.955C221.916 9.955 221.256 10.63 221.166 11.665H219.471C219.576 9.835 221.061 8.53 223.296 8.53C225.456 8.53 226.911 9.895 226.911 11.41C226.911 12.73 226.206 13.615 224.871 14.245C223.986 14.65 223.686 15.1 223.671 16.075L223.656 17.035ZM223.911 20.38H221.856V18.52H223.911V20.38Z" fill="#FC72BF"/>
<defs>
<linearGradient id="paint0_linear_58_235" x1="156" y1="48" x2="156" y2="142" gradientUnits="userSpaceOnUse">
<stop stop-color="#FEFBFD"/>
<stop offset="1" stop-color="#F3D5EA"/>
</linearGradient>
<linearGradient id="paint1_linear_58_235" x1="156.5" y1="48" x2="156.5" y2="136" gradientUnits="userSpaceOnUse">
<stop stop-color="#FF76C3"/>
<stop offset="1" stop-color="#DA428D"/>
</linearGradient>
<linearGradient id="paint2_linear_58_235" x1="156.5" y1="126" x2="156.5" y2="214" gradientUnits="userSpaceOnUse">
<stop stop-color="#FEFBFD"/>
<stop offset="1" stop-color="#F3D5EA"/>
</linearGradient>
<linearGradient id="paint3_linear_58_235" x1="156.5" y1="126" x2="156.5" y2="214" gradientUnits="userSpaceOnUse">
<stop stop-color="#FF76C3"/>
<stop offset="1" stop-color="#DA428D"/>
</linearGradient>
<linearGradient id="paint4_linear_58_235" x1="156" y1="-11.5" x2="156" y2="38" gradientUnits="userSpaceOnUse">
<stop stop-color="#FEFBFD"/>
<stop offset="1" stop-color="#F3D5EA"/>
</linearGradient>
<linearGradient id="paint5_linear_58_235" x1="156" y1="-7" x2="156" y2="39" gradientUnits="userSpaceOnUse">
<stop stop-color="#FF76C3"/>
<stop offset="1" stop-color="#DA428D"/>
</linearGradient>
</defs>
</svg>
